{
    "asset": {
        "generator": "Khronos glTF Blender I/O v3.4.50",
        "version": "2.0"
    },
    "scene": 0,
    "scenes": [
        {
            "name": "Scene",
            "nodes": [
                0
            ]
        }
    ],
    "nodes": [
        {
            "mesh": 0,
            "name": "Cube.001",
            "rotation": [
                0,
                -0.7071067094802856,
                0,
                0.7071068286895752
            ],
            "scale": [
                0.21928715705871582,
                0.21928715705871582,
                0.21928715705871582
            ],
            "translation": [
                0.07455671578645706,
                -0.059771597385406494,
                -0.2764062285423279
            ]
        }
    ],
    "materials": [
        {
            "doubleSided": true,
            "name": "Material",
            "pbrMetallicRoughness": {
                "baseColorFactor": [
                    0.800000011920929,
                    0.800000011920929,
                    0.800000011920929,
                    1
                ],
                "metallicFactor": 0,
                "roughnessFactor": 0.5
            }
        }
    ],
    "meshes": [
        {
            "name": "Cube.001",
            "primitives": [
                {
                    "attributes": {
                        "POSITION": 0,
                        "TEXCOORD_0": 1,
                        "NORMAL": 2
                    },
                    "indices": 3,
                    "material": 0
                }
            ]
        }
    ],
    "accessors": [
        {
            "bufferView": 0,
            "componentType": 5126,
            "count": 372,
            "max": [
                2.2676515579223633,
                3.054081678390503,
                1.4312098026275635
            ],
            "min": [
                -1.971116065979004,
                -2.0178308486938477,
                -1.04717218875885
            ],
            "type": "VEC3"
        },
        {
            "bufferView": 1,
            "componentType": 5126,
            "count": 372,
            "type": "VEC2"
        },
        {
            "bufferView": 2,
            "componentType": 5126,
            "count": 372,
            "type": "VEC3"
        },
        {
            "bufferView": 3,
            "componentType": 5123,
            "count": 702,
            "type": "SCALAR"
        }
    ],
    "bufferViews": [
        {
            "buffer": 0,
            "byteLength": 4464,
            "byteOffset": 0,
            "target": 34962
        },
        {
            "buffer": 0,
            "byteLength": 2976,
            "byteOffset": 4464,
            "target": 34962
        },
        {
            "buffer": 0,
            "byteLength": 4464,
            "byteOffset": 7440,
            "target": 34962
        },
        {
            "buffer": 0,
            "byteLength": 1404,
            "byteOffset": 11904,
            "target": 34963
        }
    ],
    "buffers": [
        {
            "byteLength": 13308,
            "uri": "data:application/octet-stream;base64,"
        }
    ]
}